{"title":"Edge.of.Darkness.2010.1080p.BluRay.DTS.x264-LTT","uid":5559965,"size":6779006008,"categoryP":"video","categoryS":"hd___movies","magnet":"?xt=urn:btih:1f3a6aec01f51ec0accbc6214f1f4ee778107b11&amp;dn=Edge.of.Darkness.2010.1080p.BluRay.DTS.x264-LTT&amp;tr=udp%3A%2F%2Ftracker.openbittorrent.com%3A80&amp;tr=udp%3A%2F%2Fopen.demonii.com%3A1337&amp;tr=udp%3A%2F%2Ftracker.coppersurfer.tk%3A6969&amp;tr=udp%3A%2F%2Fexodus.desync.com%3A6969","seeders":1,"leechers":0,"uploader":"Ltt_01","files":2,"time":1273801994,"description":"Edge.of.Darkness.2010.1080p.BluRay.mkv\n**************************************\n\nTiTLE......  Edge of Darkness\nYEAR.......  2010\nGENRE......  Drama | Thriller  \niMDB RATE..  User Rating: 6.8/10 (14,075 votes)\niMDB URL... &lt;a href=&quot; http://www.imdb.com/title/tt1226273/&quot; rel=&quot;nofollow&quot; target=&quot;_NEW&quot;&gt; http://www.imdb.com/title/tt1226273/&lt;/a&gt;\n*************************************************\n\nVideo\nDuration                         : 1h 56mn\nOverall bit rate                 : 7 734 Kbps\nWidth                            : 1 920 pixels\nHeight                           : 816 pixels\nDisplay aspect ratio             : 2.35:1\nStream size                      : 4.95 GiB (78%)\n\nAudio\nFormat                           : DTS\nFormat/Info                      : Digital Theater Systems\nBit rate                         : 1 510 Kbps\nChannel(s)                       : 6 channels\nChannel positions                : Front: L C R, Surround: L R, LFE\nSampling rate                    : 48.0 KHz\nResolution                       : 24 bits\nStream size                      : 1.23 GiB (20%)\nLanguage                         : English\n\nSubtitles: English, Dutch, French, Spanish, Portuguese\n******************************************************\n","torrent":{"xt":"urn:btih:1f3a6aec01f51ec0accbc6214f1f4ee778107b11","amp;dn":"Edge.of.Darkness.2010.1080p.BluRay.DTS.x264-LTT","amp;tr":["udp%3A%2F%2Ftracker.openbittorrent.com%3A80","udp%3A%2F%2Fopen.demonii.com%3A1337","udp%3A%2F%2Ftracker.coppersurfer.tk%3A6969","udp%3A%2F%2Fexodus.desync.com%3A6969"],"infoHash":"1f3a6aec01f51ec0accbc6214f1f4ee778107b11","infoHashBuffer":{"type":"Buffer","data":[31,58,106,236,1,245,30,192,172,203,198,33,79,31,78,231,120,16,123,17]},"announce":[],"urlList":[]}}